<svg width="1440" height="784" viewBox="0 0 1440 784" fill="none" xmlns="http://www.w3.org/2000/svg">
<circle cx="946" cy="158" r="50" fill="#FDEEE5"/>
<path d="M571.5 215C571.5 215 380 300.24 380 395C380 466.142 459.5 497.5 532 497.5C805.972 497.5 1201.5 334 1201.5 334" stroke="#0072CE" stroke-width="4" stroke-linecap="round" stroke-dasharray="25 25"/>
<ellipse cx="1230.5" cy="311" rx="54.5" ry="54" fill="#FFC8A7"/>
<circle cx="500" cy="163" r="154" fill="#FDEEE5"/>
<path d="M1271.27 424C1390.42 424 1487 519.083 1487 519.083V750H33V623.742C33 623.742 50.9985 613.863 65.8387 609.268C150.771 582.969 149.982 692.104 253.778 692.104C357.573 692.104 441.716 609.268 441.716 609.268C441.716 609.268 533.324 519.083 646.327 519.083C759.331 519.083 737.935 609.268 850.938 609.268C963.942 609.268 1055.55 519.083 1055.55 519.083C1055.55 519.083 1152.13 424 1271.27 424Z" fill="#FDEEE5"/>
<path d="M206.835 417C88.185 417 -8 524.042 -8 524.042V784H1440V641.863C1440 641.863 1422.08 630.741 1407.3 625.568C1322.71 595.962 1323.5 718.822 1220.13 718.822C1116.77 718.822 1032.97 625.568 1032.97 625.568C1032.97 625.568 941.741 524.042 829.204 524.042C716.666 524.042 737.974 625.568 625.437 625.568C512.9 625.568 421.671 524.042 421.671 524.042C421.671 524.042 325.486 417 206.835 417Z" fill="#FFC8A7"/>
<circle cx="61" cy="299" r="28" fill="#FDEEE5"/>
<circle cx="230" cy="38" r="20" fill="#F6C09F"/>
<circle cx="915" cy="349" r="22" fill="#FFC8A7"/>
<path d="M262.688 130.979C262.688 130.979 460.635 -2.383 652.716 34.3936C686.5 40.8619 717.5 111 652.716 142" stroke="#0072CE" stroke-width="4" stroke-linecap="round" stroke-dasharray="25 25"/>
</svg>
