<svg width="920" height="402" viewBox="0 0 920 402" fill="none" xmlns="http://www.w3.org/2000/svg">
<path d="M168.5 117C168.5 117 2.50038 208.24 2.5 303C2.49972 374.142 56.5 399.5 129 399.5C402.972 399.5 760.5 117 760.5 117" stroke="#0072CE" stroke-width="4" stroke-linecap="round" stroke-dasharray="25 25"/>
<path d="M766.892 79.9067C771.629 70.483 816.606 50.1973 816.606 50.1973C816.606 50.1973 843.018 35.5403 860.962 28.458C875.874 22.5719 900.511 -0.0778994 900.062 15.9479C899.901 21.7045 894.677 29.6763 894.677 29.6763C894.677 29.6763 881.514 52.571 870.538 65.2927C865.114 71.5788 861.427 74.5088 855.749 80.5669C846.119 90.8422 836.182 104.766 831.826 107.549C827.47 110.331 813.564 106.586 802.051 104.586C793.777 103.148 781.084 99.802 781.084 99.802C781.084 99.802 762.154 89.3304 766.892 79.9067Z" fill="#DBF2FF"/>
<path d="M918 2L712 87L768 91M918 2L824 95L768 91M918 2L785.5 111.5L768 91M918 2L768 91" stroke="#0072CE" stroke-width="3"/>
<path d="M785 111.5L769 91.5L917.5 2.5L785 111.5Z" stroke="#0072CE" stroke-width="3"/>
</svg>
